<svg xmlns="http://www.w3.org/2000/svg" xmlns:xlink="http://www.w3.org/1999/xlink" width="500" zoomAndPan="magnify" viewBox="0 0 375 374.999991" height="500" preserveAspectRatio="xMidYMid meet" version="1.2"><defs><clipPath id="e4b8cc670a"><path d="M 28.761719 13 L 314 13 L 314 298.457031 L 28.761719 298.457031 Z M 28.761719 13 "/></clipPath><clipPath id="351f9c67f6"><path d="M 37.011719 55 L 323 55 L 323 340.679688 L 37.011719 340.679688 Z M 37.011719 55 "/></clipPath><clipPath id="89a43d2f1f"><path d="M 47.757812 89 L 333 89 L 333 374.976562 L 47.757812 374.976562 Z M 47.757812 89 "/></clipPath></defs><g id="574471eb3d"><g clip-rule="nonzero" clip-path="url(#e4b8cc670a)"><path style=" stroke:none;fill-rule:nonzero;fill:#004a8f;fill-opacity:1;" d="M 252.683594 298.582031 L 276.511719 274.753906 L 241.8125 118.78125 L 277.121094 83.476562 C 277.121094 83.476562 327.164062 33.425781 310.476562 16.734375 C 293.785156 0.0625 243.742188 50.105469 243.742188 50.105469 L 208.433594 85.402344 L 52.476562 50.703125 L 28.648438 74.53125 L 153.621094 140.214844 L 125.171875 168.671875 L 74.515625 171.65625 L 50.6875 195.484375 L 110.277344 216.929688 L 131.734375 276.519531 L 155.5625 252.691406 L 158.550781 202.03125 L 186.984375 173.59375 Z M 252.683594 298.582031 "/></g><g clip-rule="nonzero" clip-path="url(#351f9c67f6)"><path style=" stroke:none;fill-rule:nonzero;fill:#2190cf;fill-opacity:1;" d="M 260.933594 340.800781 L 284.761719 316.972656 L 250.0625 161.003906 L 285.367188 125.699219 C 285.367188 125.699219 335.414062 75.648438 318.726562 58.957031 C 302.035156 42.285156 251.988281 92.328125 251.988281 92.328125 L 216.683594 127.625 L 60.726562 92.925781 L 36.898438 116.753906 L 161.871094 182.4375 L 133.421875 210.890625 L 82.761719 213.878906 L 58.933594 237.707031 L 118.527344 259.148438 L 139.984375 318.742188 L 163.8125 294.914062 L 166.800781 244.253906 L 195.234375 215.816406 Z M 260.933594 340.800781 "/></g><g clip-rule="nonzero" clip-path="url(#89a43d2f1f)"><path style=" stroke:none;fill-rule:nonzero;fill:#17c878;fill-opacity:1;" d="M 271.679688 375.101562 L 295.507812 351.273438 L 260.804688 195.300781 L 296.113281 159.996094 C 296.113281 159.996094 346.160156 109.945312 329.472656 93.253906 C 312.78125 76.582031 262.734375 126.625 262.734375 126.625 L 227.425781 161.921875 L 71.472656 127.222656 L 47.644531 151.050781 L 172.613281 216.734375 L 144.167969 245.191406 L 93.507812 248.175781 L 69.679688 272.003906 L 129.273438 293.449219 L 150.730469 353.039062 L 174.558594 329.210938 L 177.546875 278.550781 L 205.980469 250.113281 Z M 271.679688 375.101562 "/></g></g></svg>